<svg width="992" height="992" viewBox="0 0 992 992" fill="none" xmlns="http://www.w3.org/2000/svg">
<path d="M873.052 554.018C912.264 554.086 943.997 585.929 943.929 625.141L943.504 870.745C943.437 909.958 911.594 941.69 872.382 941.623L254.978 940.555C188.704 940.441 135.072 886.622 135.186 820.348L135.446 669.744C135.558 605.126 188.031 552.834 252.648 552.946L873.052 554.018Z" fill="#0FBEFE"/>
<path d="M599.574 154.598C627.632 127.206 672.583 127.746 699.976 155.804L858.255 317.93C885.648 345.988 885.108 390.94 857.05 418.332L429.043 836.183C381.621 882.48 305.647 881.568 259.35 834.146L167.434 739.996C122.295 693.759 123.184 619.684 169.421 574.545L599.574 154.598Z" fill="#00D085"/>
<path d="M51 125C51 85.7878 82.7878 54 122 54H374C413.212 54 445 85.7878 445 125V756C445 858.173 362.173 941 260 941H232C132.036 941 51 859.964 51 760V125Z" fill="#F35428"/>
<path d="M445.417 748.917C445.417 802.579 424.099 854.043 386.155 891.988C348.21 929.933 296.745 951.25 243.083 951.25C189.421 951.25 137.957 929.933 100.012 891.988C62.0672 854.043 40.75 802.579 40.75 748.917V141.917C40.75 115.086 51.4086 89.3535 70.381 70.381C89.3535 51.4086 115.086 40.75 141.917 40.75H344.25C371.081 40.75 396.813 51.4086 415.786 70.381C434.758 89.3535 445.417 115.086 445.417 141.917V748.917Z" stroke="black" stroke-width="80" stroke-linecap="round" stroke-linejoin="round"/>
<path d="M733.742 546.583H850.083C876.914 546.583 902.647 557.242 921.619 576.214C940.591 595.187 951.25 620.919 951.25 647.75V850.083C951.25 876.914 940.591 902.646 921.619 921.619C902.647 940.591 876.914 951.25 850.083 951.25H243.083" stroke="black" stroke-width="80" stroke-linecap="round" stroke-linejoin="round"/>
<path d="M243.083 748.917H243.589" stroke="black" stroke-width="80" stroke-linecap="round" stroke-linejoin="round"/>
<path d="M445.417 293.667L561.758 177.325C573.054 165.99 586.479 157 601.261 150.872C616.043 144.744 631.891 141.599 647.893 141.618C663.895 141.637 679.736 144.819 694.504 150.982C709.271 157.144 722.675 166.166 733.944 177.527L829.85 273.433C841.514 284.653 850.817 298.092 857.212 312.96C863.607 327.827 866.965 343.824 867.087 360.008C867.21 376.192 864.095 392.237 857.926 407.2C851.757 422.163 842.658 435.741 831.165 447.137L389.775 890.55" stroke="black" stroke-width="80" stroke-linecap="round" stroke-linejoin="round"/>
</svg>
